<svg width="18" height="19" viewBox="0 0 18 19" fill="none" xmlns="http://www.w3.org/2000/svg">
<path d="M2.33366 12.3327V2.33268H0.666992V0.666016H3.16699C3.38801 0.666016 3.59997 0.753813 3.75625 0.910093C3.91253 1.06637 4.00033 1.27834 4.00033 1.49935V11.4993H14.3653L16.032 4.83268H5.66699V3.16602H17.1003C17.227 3.16602 17.352 3.1949 17.4658 3.25046C17.5797 3.30603 17.6793 3.38681 17.7573 3.48667C17.8352 3.58653 17.8893 3.70285 17.9156 3.82677C17.9418 3.9507 17.9394 4.07897 17.9087 4.20185L15.8253 12.5352C15.7802 12.7154 15.6761 12.8753 15.5297 12.9896C15.3832 13.1039 15.2028 13.166 15.017 13.166H3.16699C2.94598 13.166 2.73402 13.0782 2.57774 12.9219C2.42146 12.7657 2.33366 12.5537 2.33366 12.3327ZM4.00033 18.166C3.5583 18.166 3.13437 17.9904 2.82181 17.6779C2.50925 17.3653 2.33366 16.9414 2.33366 16.4993C2.33366 16.0573 2.50925 15.6334 2.82181 15.3208C3.13437 15.0083 3.5583 14.8327 4.00033 14.8327C4.44235 14.8327 4.86628 15.0083 5.17884 15.3208C5.4914 15.6334 5.66699 16.0573 5.66699 16.4993C5.66699 16.9414 5.4914 17.3653 5.17884 17.6779C4.86628 17.9904 4.44235 18.166 4.00033 18.166ZM14.0003 18.166C13.5583 18.166 13.1344 17.9904 12.8218 17.6779C12.5093 17.3653 12.3337 16.9414 12.3337 16.4993C12.3337 16.0573 12.5093 15.6334 12.8218 15.3208C13.1344 15.0083 13.5583 14.8327 14.0003 14.8327C14.4424 14.8327 14.8663 15.0083 15.1788 15.3208C15.4914 15.6334 15.667 16.0573 15.667 16.4993C15.667 16.9414 15.4914 17.3653 15.1788 17.6779C14.8663 17.9904 14.4424 18.166 14.0003 18.166Z" fill="#333333"/>
</svg>
